%TF.GenerationSoftware,KiCad,Pcbnew,(6.0.1)*%
%TF.CreationDate,2023-01-17T21:15:05+08:00*%
%TF.ProjectId,TI99Joyadapter,54493939-4a6f-4796-9164-61707465722e,rev?*%
%TF.SameCoordinates,Original*%
%TF.FileFunction,Copper,L1,Top*%
%TF.FilePolarity,Positive*%
%FSLAX46Y46*%
G04 Gerber Fmt 4.6, Leading zero omitted, Abs format (unit mm)*
G04 Created by KiCad (PCBNEW (6.0.1)) date 2023-01-17 21:15:05*
%MOMM*%
%LPD*%
G01*
G04 APERTURE LIST*
%TA.AperFunction,SMDPad,CuDef*%
%ADD10R,2.500000X1.800000*%
%TD*%
%TA.AperFunction,ComponentPad*%
%ADD11R,1.600000X1.600000*%
%TD*%
%TA.AperFunction,ComponentPad*%
%ADD12C,1.600000*%
%TD*%
%TA.AperFunction,ViaPad*%
%ADD13C,0.800000*%
%TD*%
%TA.AperFunction,Conductor*%
%ADD14C,0.500000*%
%TD*%
G04 APERTURE END LIST*
D10*
%TO.P,D4,1,K*%
%TO.N,Net-(D4-Pad1)*%
X159914285Y-63200000D03*
%TO.P,D4,2,A*%
%TO.N,Net-(D3-Pad2)*%
X155914285Y-63200000D03*
%TD*%
%TO.P,D10,1,K*%
%TO.N,Net-(D10-Pad1)*%
X159400000Y-83800000D03*
%TO.P,D10,2,A*%
%TO.N,Net-(D10-Pad2)*%
X155400000Y-83800000D03*
%TD*%
%TO.P,D9,1,K*%
%TO.N,Net-(D9-Pad1)*%
X136028571Y-63200000D03*
%TO.P,D9,2,A*%
%TO.N,Net-(D10-Pad2)*%
X140028571Y-63200000D03*
%TD*%
D11*
%TO.P,J1,1,1*%
%TO.N,unconnected-(J1-Pad1)*%
X137400000Y-75190331D03*
D12*
%TO.P,J1,2,2*%
%TO.N,Net-(J1-Pad2)*%
X140170000Y-75190331D03*
%TO.P,J1,3,3*%
%TO.N,Net-(D10-Pad2)*%
X142940000Y-75190331D03*
%TO.P,J1,4,4*%
%TO.N,Net-(D7-Pad2)*%
X145710000Y-75190331D03*
%TO.P,J1,5,5*%
%TO.N,Net-(D3-Pad2)*%
X148480000Y-75190331D03*
%TO.P,J1,6,6*%
%TO.N,unconnected-(J1-Pad6)*%
X138785000Y-72350331D03*
%TO.P,J1,7,7*%
%TO.N,Net-(J1-Pad7)*%
X141555000Y-72350331D03*
%TO.P,J1,8,8*%
%TO.N,Net-(D5-Pad2)*%
X144325000Y-72350331D03*
%TO.P,J1,9,9*%
%TO.N,Net-(D1-Pad2)*%
X147095000Y-72350331D03*
%TD*%
D10*
%TO.P,D2,1,K*%
%TO.N,Net-(D2-Pad1)*%
X149971428Y-63200000D03*
%TO.P,D2,2,A*%
%TO.N,Net-(D1-Pad2)*%
X145971428Y-63200000D03*
%TD*%
%TO.P,D1,1,K*%
%TO.N,Net-(D1-Pad1)*%
X128200000Y-83800000D03*
%TO.P,D1,2,A*%
%TO.N,Net-(D1-Pad2)*%
X132200000Y-83800000D03*
%TD*%
%TO.P,D7,1,K*%
%TO.N,Net-(D7-Pad1)*%
X137800000Y-83800000D03*
%TO.P,D7,2,A*%
%TO.N,Net-(D7-Pad2)*%
X141800000Y-83800000D03*
%TD*%
%TO.P,D8,1,K*%
%TO.N,Net-(D8-Pad1)*%
X149600000Y-83800000D03*
%TO.P,D8,2,A*%
%TO.N,Net-(D7-Pad2)*%
X145600000Y-83800000D03*
%TD*%
%TO.P,D6,1,K*%
%TO.N,Net-(D6-Pad1)*%
X169857142Y-63200000D03*
%TO.P,D6,2,A*%
%TO.N,Net-(D5-Pad2)*%
X165857142Y-63200000D03*
%TD*%
%TO.P,D3,1,K*%
%TO.N,Net-(D3-Pad1)*%
X116142857Y-63200000D03*
%TO.P,D3,2,A*%
%TO.N,Net-(D3-Pad2)*%
X120142857Y-63200000D03*
%TD*%
%TO.P,D5,1,K*%
%TO.N,Net-(D5-Pad1)*%
X126085714Y-63200000D03*
%TO.P,D5,2,A*%
%TO.N,Net-(D5-Pad2)*%
X130085714Y-63200000D03*
%TD*%
D11*
%TO.P,J2,1,1*%
%TO.N,Net-(D9-Pad1)*%
X125950000Y-72309669D03*
D12*
%TO.P,J2,2,2*%
%TO.N,Net-(D5-Pad1)*%
X123180000Y-72309669D03*
%TO.P,J2,3,3*%
%TO.N,Net-(D3-Pad1)*%
X120410000Y-72309669D03*
%TO.P,J2,4,4*%
%TO.N,Net-(D1-Pad1)*%
X117640000Y-72309669D03*
%TO.P,J2,5,5*%
%TO.N,unconnected-(J2-Pad5)*%
X114870000Y-72309669D03*
%TO.P,J2,6,6*%
%TO.N,Net-(D7-Pad1)*%
X124565000Y-75149669D03*
%TO.P,J2,7,7*%
%TO.N,unconnected-(J2-Pad7)*%
X121795000Y-75149669D03*
%TO.P,J2,8,8*%
%TO.N,Net-(J1-Pad7)*%
X119025000Y-75149669D03*
%TO.P,J2,9,9*%
%TO.N,unconnected-(J2-Pad9)*%
X116255000Y-75149669D03*
%TD*%
D11*
%TO.P,J3,1,1*%
%TO.N,Net-(D10-Pad1)*%
X171050000Y-72309669D03*
D12*
%TO.P,J3,2,2*%
%TO.N,Net-(D6-Pad1)*%
X168280000Y-72309669D03*
%TO.P,J3,3,3*%
%TO.N,Net-(D4-Pad1)*%
X165510000Y-72309669D03*
%TO.P,J3,4,4*%
%TO.N,Net-(D2-Pad1)*%
X162740000Y-72309669D03*
%TO.P,J3,5,5*%
%TO.N,unconnected-(J3-Pad5)*%
X159970000Y-72309669D03*
%TO.P,J3,6,6*%
%TO.N,Net-(D8-Pad1)*%
X169665000Y-75149669D03*
%TO.P,J3,7,7*%
%TO.N,unconnected-(J3-Pad7)*%
X166895000Y-75149669D03*
%TO.P,J3,8,8*%
%TO.N,Net-(J1-Pad2)*%
X164125000Y-75149669D03*
%TO.P,J3,9,9*%
%TO.N,unconnected-(J3-Pad9)*%
X161355000Y-75149669D03*
%TD*%
D13*
%TO.N,Net-(D3-Pad2)*%
X143200000Y-60200000D03*
%TO.N,Net-(D5-Pad2)*%
X130800000Y-66000000D03*
%TD*%
D14*
%TO.N,Net-(D1-Pad1)*%
X128200000Y-83800000D02*
X125908255Y-83800000D01*
X117640000Y-75531745D02*
X117640000Y-72309669D01*
X125908255Y-83800000D02*
X117640000Y-75531745D01*
%TO.N,Net-(D1-Pad2)*%
X146782924Y-72350331D02*
X147095000Y-72350331D01*
X132200000Y-83800000D02*
X132550000Y-83800000D01*
X134350000Y-85600000D02*
X139049022Y-85600000D01*
X144400000Y-78150978D02*
X144400000Y-74733255D01*
X139049022Y-85600000D02*
X140000000Y-84649022D01*
X144400000Y-74733255D02*
X146782924Y-72350331D01*
X140000000Y-84649022D02*
X140000000Y-82550978D01*
X140000000Y-82550978D02*
X144400000Y-78150978D01*
X147095000Y-64323572D02*
X145971428Y-63200000D01*
X132550000Y-83800000D02*
X134350000Y-85600000D01*
X147095000Y-72350331D02*
X147095000Y-64323572D01*
%TO.N,Net-(D2-Pad1)*%
X162740000Y-72309669D02*
X161490489Y-71060158D01*
X157831586Y-71060158D02*
X149971428Y-63200000D01*
X161490489Y-71060158D02*
X157831586Y-71060158D01*
%TO.N,Net-(D3-Pad1)*%
X120410000Y-67467143D02*
X116142857Y-63200000D01*
X120410000Y-72309669D02*
X120410000Y-67467143D01*
%TO.N,Net-(D3-Pad2)*%
X148480000Y-75190331D02*
X148480000Y-64757594D01*
X148480000Y-64757594D02*
X148271917Y-64549511D01*
X148271917Y-64549511D02*
X148271917Y-61328083D01*
X148271917Y-61328083D02*
X154042368Y-61328083D01*
X123142857Y-60200000D02*
X143200000Y-60200000D01*
X154042368Y-61328083D02*
X155914285Y-63200000D01*
X120142857Y-63200000D02*
X123142857Y-60200000D01*
%TO.N,Net-(D4-Pad1)*%
X165510000Y-72309669D02*
X165510000Y-68795715D01*
X165510000Y-68795715D02*
X159914285Y-63200000D01*
%TO.N,Net-(D5-Pad1)*%
X123180000Y-66105714D02*
X126085714Y-63200000D01*
X123180000Y-72309669D02*
X123180000Y-66105714D01*
%TO.N,Net-(D5-Pad2)*%
X146200000Y-60000000D02*
X162657142Y-60000000D01*
X162657142Y-60000000D02*
X165857142Y-63200000D01*
X144271917Y-72297248D02*
X144271917Y-61928083D01*
X130085714Y-63200000D02*
X130085714Y-65285714D01*
X144325000Y-72350331D02*
X144271917Y-72297248D01*
X130085714Y-65285714D02*
X130800000Y-66000000D01*
X144271917Y-61928083D02*
X146200000Y-60000000D01*
%TO.N,Net-(D6-Pad1)*%
X168280000Y-64777142D02*
X169857142Y-63200000D01*
X168280000Y-72309669D02*
X168280000Y-64777142D01*
%TO.N,Net-(D7-Pad1)*%
X124565000Y-75149669D02*
X129149669Y-75149669D01*
X129149669Y-75149669D02*
X137800000Y-83800000D01*
%TO.N,Net-(D7-Pad2)*%
X145710000Y-75190331D02*
X145710000Y-83690000D01*
X145710000Y-83690000D02*
X145600000Y-83800000D01*
X141800000Y-83800000D02*
X145600000Y-83800000D01*
%TO.N,Net-(D8-Pad1)*%
X169665000Y-75149669D02*
X162364180Y-82450489D01*
X162364180Y-82450489D02*
X150949511Y-82450489D01*
X150949511Y-82450489D02*
X149600000Y-83800000D01*
%TO.N,Net-(D9-Pad1)*%
X126918902Y-72309669D02*
X136028571Y-63200000D01*
X125950000Y-72309669D02*
X126918902Y-72309669D01*
%TO.N,Net-(D10-Pad2)*%
X140028571Y-63200000D02*
X142922406Y-63200000D01*
X131750978Y-86400000D02*
X130200000Y-84849022D01*
X142940000Y-63182406D02*
X142940000Y-75190331D01*
X123315489Y-75866467D02*
X123315489Y-74632104D01*
X123315489Y-74632104D02*
X124047435Y-73900158D01*
X142922406Y-63200000D02*
X142940000Y-63182406D01*
X152800000Y-86400000D02*
X131750978Y-86400000D01*
X130200000Y-82750978D02*
X123315489Y-75866467D01*
X130200000Y-84849022D02*
X130200000Y-82750978D01*
X141649827Y-73900158D02*
X142940000Y-75190331D01*
X155400000Y-83800000D02*
X152800000Y-86400000D01*
X124047435Y-73900158D02*
X141649827Y-73900158D01*
%TO.N,Net-(D10-Pad1)*%
X159400000Y-83800000D02*
X162781745Y-83800000D01*
X171050000Y-75531745D02*
X171050000Y-72309669D01*
X162781745Y-83800000D02*
X171050000Y-75531745D01*
%TD*%
M02*
