%TF.GenerationSoftware,KiCad,Pcbnew,(6.0.1)*%
%TF.CreationDate,2023-01-17T21:15:05+08:00*%
%TF.ProjectId,TI99Joyadapter,54493939-4a6f-4796-9164-61707465722e,rev?*%
%TF.SameCoordinates,Original*%
%TF.FileFunction,Legend,Top*%
%TF.FilePolarity,Positive*%
%FSLAX46Y46*%
G04 Gerber Fmt 4.6, Leading zero omitted, Abs format (unit mm)*
G04 Created by KiCad (PCBNEW (6.0.1)) date 2023-01-17 21:15:05*
%MOMM*%
%LPD*%
G01*
G04 APERTURE LIST*
%ADD10C,0.150000*%
%ADD11C,0.120000*%
G04 APERTURE END LIST*
D10*
X113709523Y-85052380D02*
X114280952Y-85052380D01*
X113995238Y-86052380D02*
X113995238Y-85052380D01*
X114614285Y-86052380D02*
X114614285Y-85052380D01*
X115138095Y-86052380D02*
X115328571Y-86052380D01*
X115423809Y-86004761D01*
X115471428Y-85957142D01*
X115566666Y-85814285D01*
X115614285Y-85623809D01*
X115614285Y-85242857D01*
X115566666Y-85147619D01*
X115519047Y-85100000D01*
X115423809Y-85052380D01*
X115233333Y-85052380D01*
X115138095Y-85100000D01*
X115090476Y-85147619D01*
X115042857Y-85242857D01*
X115042857Y-85480952D01*
X115090476Y-85576190D01*
X115138095Y-85623809D01*
X115233333Y-85671428D01*
X115423809Y-85671428D01*
X115519047Y-85623809D01*
X115566666Y-85576190D01*
X115614285Y-85480952D01*
X116090476Y-86052380D02*
X116280952Y-86052380D01*
X116376190Y-86004761D01*
X116423809Y-85957142D01*
X116519047Y-85814285D01*
X116566666Y-85623809D01*
X116566666Y-85242857D01*
X116519047Y-85147619D01*
X116471428Y-85100000D01*
X116376190Y-85052380D01*
X116185714Y-85052380D01*
X116090476Y-85100000D01*
X116042857Y-85147619D01*
X115995238Y-85242857D01*
X115995238Y-85480952D01*
X116042857Y-85576190D01*
X116090476Y-85623809D01*
X116185714Y-85671428D01*
X116376190Y-85671428D01*
X116471428Y-85623809D01*
X116519047Y-85576190D01*
X116566666Y-85480952D01*
X117280952Y-85052380D02*
X117280952Y-85766666D01*
X117233333Y-85909523D01*
X117138095Y-86004761D01*
X116995238Y-86052380D01*
X116900000Y-86052380D01*
X117900000Y-86052380D02*
X117804761Y-86004761D01*
X117757142Y-85957142D01*
X117709523Y-85861904D01*
X117709523Y-85576190D01*
X117757142Y-85480952D01*
X117804761Y-85433333D01*
X117900000Y-85385714D01*
X118042857Y-85385714D01*
X118138095Y-85433333D01*
X118185714Y-85480952D01*
X118233333Y-85576190D01*
X118233333Y-85861904D01*
X118185714Y-85957142D01*
X118138095Y-86004761D01*
X118042857Y-86052380D01*
X117900000Y-86052380D01*
X118566666Y-85385714D02*
X118804761Y-86052380D01*
X119042857Y-85385714D02*
X118804761Y-86052380D01*
X118709523Y-86290476D01*
X118661904Y-86338095D01*
X118566666Y-86385714D01*
%TO.C,D4*%
X157176189Y-66152380D02*
X157176189Y-65152380D01*
X157414285Y-65152380D01*
X157557142Y-65200000D01*
X157652380Y-65295238D01*
X157699999Y-65390476D01*
X157747618Y-65580952D01*
X157747618Y-65723809D01*
X157699999Y-65914285D01*
X157652380Y-66009523D01*
X157557142Y-66104761D01*
X157414285Y-66152380D01*
X157176189Y-66152380D01*
X158604761Y-65485714D02*
X158604761Y-66152380D01*
X158366665Y-65104761D02*
X158128570Y-65819047D01*
X158747618Y-65819047D01*
%TO.C,D10*%
X156185714Y-86752380D02*
X156185714Y-85752380D01*
X156423809Y-85752380D01*
X156566666Y-85800000D01*
X156661904Y-85895238D01*
X156709523Y-85990476D01*
X156757142Y-86180952D01*
X156757142Y-86323809D01*
X156709523Y-86514285D01*
X156661904Y-86609523D01*
X156566666Y-86704761D01*
X156423809Y-86752380D01*
X156185714Y-86752380D01*
X157709523Y-86752380D02*
X157138095Y-86752380D01*
X157423809Y-86752380D02*
X157423809Y-85752380D01*
X157328571Y-85895238D01*
X157233333Y-85990476D01*
X157138095Y-86038095D01*
X158328571Y-85752380D02*
X158423809Y-85752380D01*
X158519047Y-85800000D01*
X158566666Y-85847619D01*
X158614285Y-85942857D01*
X158661904Y-86133333D01*
X158661904Y-86371428D01*
X158614285Y-86561904D01*
X158566666Y-86657142D01*
X158519047Y-86704761D01*
X158423809Y-86752380D01*
X158328571Y-86752380D01*
X158233333Y-86704761D01*
X158185714Y-86657142D01*
X158138095Y-86561904D01*
X158090476Y-86371428D01*
X158090476Y-86133333D01*
X158138095Y-85942857D01*
X158185714Y-85847619D01*
X158233333Y-85800000D01*
X158328571Y-85752380D01*
%TO.C,D9*%
X137290475Y-61152380D02*
X137290475Y-60152380D01*
X137528571Y-60152380D01*
X137671428Y-60200000D01*
X137766666Y-60295238D01*
X137814285Y-60390476D01*
X137861904Y-60580952D01*
X137861904Y-60723809D01*
X137814285Y-60914285D01*
X137766666Y-61009523D01*
X137671428Y-61104761D01*
X137528571Y-61152380D01*
X137290475Y-61152380D01*
X138338094Y-61152380D02*
X138528571Y-61152380D01*
X138623809Y-61104761D01*
X138671428Y-61057142D01*
X138766666Y-60914285D01*
X138814285Y-60723809D01*
X138814285Y-60342857D01*
X138766666Y-60247619D01*
X138719047Y-60200000D01*
X138623809Y-60152380D01*
X138433332Y-60152380D01*
X138338094Y-60200000D01*
X138290475Y-60247619D01*
X138242856Y-60342857D01*
X138242856Y-60580952D01*
X138290475Y-60676190D01*
X138338094Y-60723809D01*
X138433332Y-60771428D01*
X138623809Y-60771428D01*
X138719047Y-60723809D01*
X138766666Y-60676190D01*
X138814285Y-60580952D01*
%TO.C,J1*%
X155266666Y-71052380D02*
X155266666Y-71766666D01*
X155219047Y-71909523D01*
X155123809Y-72004761D01*
X154980952Y-72052380D01*
X154885714Y-72052380D01*
X156266666Y-72052380D02*
X155695238Y-72052380D01*
X155980952Y-72052380D02*
X155980952Y-71052380D01*
X155885714Y-71195238D01*
X155790476Y-71290476D01*
X155695238Y-71338095D01*
%TO.C,D2*%
X147233332Y-66152380D02*
X147233332Y-65152380D01*
X147471428Y-65152380D01*
X147614285Y-65200000D01*
X147709523Y-65295238D01*
X147757142Y-65390476D01*
X147804761Y-65580952D01*
X147804761Y-65723809D01*
X147757142Y-65914285D01*
X147709523Y-66009523D01*
X147614285Y-66104761D01*
X147471428Y-66152380D01*
X147233332Y-66152380D01*
X148185713Y-65247619D02*
X148233332Y-65200000D01*
X148328570Y-65152380D01*
X148566666Y-65152380D01*
X148661904Y-65200000D01*
X148709523Y-65247619D01*
X148757142Y-65342857D01*
X148757142Y-65438095D01*
X148709523Y-65580952D01*
X148138094Y-66152380D01*
X148757142Y-66152380D01*
%TO.C,D1*%
X129461904Y-81752380D02*
X129461904Y-80752380D01*
X129700000Y-80752380D01*
X129842857Y-80800000D01*
X129938095Y-80895238D01*
X129985714Y-80990476D01*
X130033333Y-81180952D01*
X130033333Y-81323809D01*
X129985714Y-81514285D01*
X129938095Y-81609523D01*
X129842857Y-81704761D01*
X129700000Y-81752380D01*
X129461904Y-81752380D01*
X130985714Y-81752380D02*
X130414285Y-81752380D01*
X130700000Y-81752380D02*
X130700000Y-80752380D01*
X130604761Y-80895238D01*
X130509523Y-80990476D01*
X130414285Y-81038095D01*
%TO.C,D7*%
X139061904Y-81752380D02*
X139061904Y-80752380D01*
X139300000Y-80752380D01*
X139442857Y-80800000D01*
X139538095Y-80895238D01*
X139585714Y-80990476D01*
X139633333Y-81180952D01*
X139633333Y-81323809D01*
X139585714Y-81514285D01*
X139538095Y-81609523D01*
X139442857Y-81704761D01*
X139300000Y-81752380D01*
X139061904Y-81752380D01*
X139966666Y-80752380D02*
X140633333Y-80752380D01*
X140204761Y-81752380D01*
%TO.C,D8*%
X146861904Y-86752380D02*
X146861904Y-85752380D01*
X147100000Y-85752380D01*
X147242857Y-85800000D01*
X147338095Y-85895238D01*
X147385714Y-85990476D01*
X147433333Y-86180952D01*
X147433333Y-86323809D01*
X147385714Y-86514285D01*
X147338095Y-86609523D01*
X147242857Y-86704761D01*
X147100000Y-86752380D01*
X146861904Y-86752380D01*
X148004761Y-86180952D02*
X147909523Y-86133333D01*
X147861904Y-86085714D01*
X147814285Y-85990476D01*
X147814285Y-85942857D01*
X147861904Y-85847619D01*
X147909523Y-85800000D01*
X148004761Y-85752380D01*
X148195238Y-85752380D01*
X148290476Y-85800000D01*
X148338095Y-85847619D01*
X148385714Y-85942857D01*
X148385714Y-85990476D01*
X148338095Y-86085714D01*
X148290476Y-86133333D01*
X148195238Y-86180952D01*
X148004761Y-86180952D01*
X147909523Y-86228571D01*
X147861904Y-86276190D01*
X147814285Y-86371428D01*
X147814285Y-86561904D01*
X147861904Y-86657142D01*
X147909523Y-86704761D01*
X148004761Y-86752380D01*
X148195238Y-86752380D01*
X148290476Y-86704761D01*
X148338095Y-86657142D01*
X148385714Y-86561904D01*
X148385714Y-86371428D01*
X148338095Y-86276190D01*
X148290476Y-86228571D01*
X148195238Y-86180952D01*
%TO.C,D6*%
X167119046Y-66152380D02*
X167119046Y-65152380D01*
X167357142Y-65152380D01*
X167499999Y-65200000D01*
X167595237Y-65295238D01*
X167642856Y-65390476D01*
X167690475Y-65580952D01*
X167690475Y-65723809D01*
X167642856Y-65914285D01*
X167595237Y-66009523D01*
X167499999Y-66104761D01*
X167357142Y-66152380D01*
X167119046Y-66152380D01*
X168547618Y-65152380D02*
X168357142Y-65152380D01*
X168261903Y-65200000D01*
X168214284Y-65247619D01*
X168119046Y-65390476D01*
X168071427Y-65580952D01*
X168071427Y-65961904D01*
X168119046Y-66057142D01*
X168166665Y-66104761D01*
X168261903Y-66152380D01*
X168452380Y-66152380D01*
X168547618Y-66104761D01*
X168595237Y-66057142D01*
X168642856Y-65961904D01*
X168642856Y-65723809D01*
X168595237Y-65628571D01*
X168547618Y-65580952D01*
X168452380Y-65533333D01*
X168261903Y-65533333D01*
X168166665Y-65580952D01*
X168119046Y-65628571D01*
X168071427Y-65723809D01*
%TO.C,D3*%
X117404761Y-61152380D02*
X117404761Y-60152380D01*
X117642857Y-60152380D01*
X117785714Y-60200000D01*
X117880952Y-60295238D01*
X117928571Y-60390476D01*
X117976190Y-60580952D01*
X117976190Y-60723809D01*
X117928571Y-60914285D01*
X117880952Y-61009523D01*
X117785714Y-61104761D01*
X117642857Y-61152380D01*
X117404761Y-61152380D01*
X118309523Y-60152380D02*
X118928571Y-60152380D01*
X118595237Y-60533333D01*
X118738095Y-60533333D01*
X118833333Y-60580952D01*
X118880952Y-60628571D01*
X118928571Y-60723809D01*
X118928571Y-60961904D01*
X118880952Y-61057142D01*
X118833333Y-61104761D01*
X118738095Y-61152380D01*
X118452380Y-61152380D01*
X118357142Y-61104761D01*
X118309523Y-61057142D01*
%TO.C,D5*%
X127347618Y-61152380D02*
X127347618Y-60152380D01*
X127585714Y-60152380D01*
X127728571Y-60200000D01*
X127823809Y-60295238D01*
X127871428Y-60390476D01*
X127919047Y-60580952D01*
X127919047Y-60723809D01*
X127871428Y-60914285D01*
X127823809Y-61009523D01*
X127728571Y-61104761D01*
X127585714Y-61152380D01*
X127347618Y-61152380D01*
X128823809Y-60152380D02*
X128347618Y-60152380D01*
X128299999Y-60628571D01*
X128347618Y-60580952D01*
X128442856Y-60533333D01*
X128680952Y-60533333D01*
X128776190Y-60580952D01*
X128823809Y-60628571D01*
X128871428Y-60723809D01*
X128871428Y-60961904D01*
X128823809Y-61057142D01*
X128776190Y-61104761D01*
X128680952Y-61152380D01*
X128442856Y-61152380D01*
X128347618Y-61104761D01*
X128299999Y-61057142D01*
D11*
%TO.C,D4*%
X161314285Y-64850000D02*
X155914285Y-64850000D01*
X161314285Y-64850000D02*
X161314285Y-61550000D01*
X161314285Y-61550000D02*
X155914285Y-61550000D01*
%TO.C,D10*%
X160800000Y-85450000D02*
X155400000Y-85450000D01*
X160800000Y-82150000D02*
X155400000Y-82150000D01*
X160800000Y-85450000D02*
X160800000Y-82150000D01*
%TO.C,D9*%
X134628571Y-61550000D02*
X140028571Y-61550000D01*
X134628571Y-64850000D02*
X140028571Y-64850000D01*
X134628571Y-61550000D02*
X134628571Y-64850000D01*
%TO.C,J1*%
X128515000Y-67460331D02*
X157365000Y-67460331D01*
X137150000Y-80974669D02*
X137400000Y-80541656D01*
X137400000Y-80541656D02*
X137650000Y-80974669D01*
X135073530Y-75832075D02*
X135902267Y-71132075D01*
X157365000Y-80080331D02*
X128515000Y-80080331D01*
X137650000Y-80974669D02*
X137150000Y-80974669D01*
X149171689Y-77780331D02*
X136708311Y-77780331D01*
X127455000Y-79020331D02*
X127455000Y-68520331D01*
X150806470Y-75832075D02*
X149977733Y-71132075D01*
X158425000Y-68520331D02*
X158425000Y-79020331D01*
X148342952Y-69760331D02*
X137537048Y-69760331D01*
X137537048Y-69760331D02*
G75*
G03*
X135902267Y-71132075I-1J-1659999D01*
G01*
X135073530Y-75832075D02*
G75*
G03*
X136708311Y-77780331I1634781J-288256D01*
G01*
X128515000Y-67460331D02*
G75*
G03*
X127455000Y-68520331I1J-1060001D01*
G01*
X127455000Y-79020331D02*
G75*
G03*
X128515000Y-80080331I1060001J1D01*
G01*
X149977733Y-71132075D02*
G75*
G03*
X148342952Y-69760331I-1634780J-288255D01*
G01*
X149171689Y-77780331D02*
G75*
G03*
X150806470Y-75832075I1J1659999D01*
G01*
X157365000Y-80080331D02*
G75*
G03*
X158425000Y-79020331I-1J1060001D01*
G01*
X158425000Y-68520331D02*
G75*
G03*
X157365000Y-67460331I-1060001J-1D01*
G01*
%TO.C,D2*%
X151371428Y-64850000D02*
X151371428Y-61550000D01*
X151371428Y-64850000D02*
X145971428Y-64850000D01*
X151371428Y-61550000D02*
X145971428Y-61550000D01*
%TO.C,D1*%
X126800000Y-82150000D02*
X132200000Y-82150000D01*
X126800000Y-85450000D02*
X132200000Y-85450000D01*
X126800000Y-82150000D02*
X126800000Y-85450000D01*
%TO.C,D7*%
X136400000Y-82150000D02*
X136400000Y-85450000D01*
X136400000Y-82150000D02*
X141800000Y-82150000D01*
X136400000Y-85450000D02*
X141800000Y-85450000D01*
%TO.C,D8*%
X151000000Y-85450000D02*
X151000000Y-82150000D01*
X151000000Y-85450000D02*
X145600000Y-85450000D01*
X151000000Y-82150000D02*
X145600000Y-82150000D01*
%TO.C,D6*%
X171257142Y-64850000D02*
X165857142Y-64850000D01*
X171257142Y-61550000D02*
X165857142Y-61550000D01*
X171257142Y-64850000D02*
X171257142Y-61550000D01*
%TO.C,D3*%
X114742857Y-64850000D02*
X120142857Y-64850000D01*
X114742857Y-61550000D02*
X120142857Y-61550000D01*
X114742857Y-61550000D02*
X114742857Y-64850000D01*
%TO.C,D5*%
X124685714Y-61550000D02*
X130085714Y-61550000D01*
X124685714Y-61550000D02*
X124685714Y-64850000D01*
X124685714Y-64850000D02*
X130085714Y-64850000D01*
%TD*%
M02*
