%TF.GenerationSoftware,KiCad,Pcbnew,(6.0.1)*%
%TF.CreationDate,2023-01-17T21:15:05+08:00*%
%TF.ProjectId,TI99Joyadapter,54493939-4a6f-4796-9164-61707465722e,rev?*%
%TF.SameCoordinates,Original*%
%TF.FileFunction,Soldermask,Top*%
%TF.FilePolarity,Negative*%
%FSLAX46Y46*%
G04 Gerber Fmt 4.6, Leading zero omitted, Abs format (unit mm)*
G04 Created by KiCad (PCBNEW (6.0.1)) date 2023-01-17 21:15:05*
%MOMM*%
%LPD*%
G01*
G04 APERTURE LIST*
%ADD10R,2.500000X1.800000*%
%ADD11R,1.600000X1.600000*%
%ADD12C,1.600000*%
G04 APERTURE END LIST*
D10*
%TO.C,D4*%
X159914285Y-63200000D03*
X155914285Y-63200000D03*
%TD*%
%TO.C,D10*%
X159400000Y-83800000D03*
X155400000Y-83800000D03*
%TD*%
%TO.C,D9*%
X136028571Y-63200000D03*
X140028571Y-63200000D03*
%TD*%
D11*
%TO.C,J1*%
X137400000Y-75190331D03*
D12*
X140170000Y-75190331D03*
X142940000Y-75190331D03*
X145710000Y-75190331D03*
X148480000Y-75190331D03*
X138785000Y-72350331D03*
X141555000Y-72350331D03*
X144325000Y-72350331D03*
X147095000Y-72350331D03*
%TD*%
D10*
%TO.C,D2*%
X149971428Y-63200000D03*
X145971428Y-63200000D03*
%TD*%
%TO.C,D1*%
X128200000Y-83800000D03*
X132200000Y-83800000D03*
%TD*%
%TO.C,D7*%
X137800000Y-83800000D03*
X141800000Y-83800000D03*
%TD*%
%TO.C,D8*%
X149600000Y-83800000D03*
X145600000Y-83800000D03*
%TD*%
%TO.C,D6*%
X169857142Y-63200000D03*
X165857142Y-63200000D03*
%TD*%
%TO.C,D3*%
X116142857Y-63200000D03*
X120142857Y-63200000D03*
%TD*%
%TO.C,D5*%
X126085714Y-63200000D03*
X130085714Y-63200000D03*
%TD*%
D11*
%TO.C,J2*%
X125950000Y-72309669D03*
D12*
X123180000Y-72309669D03*
X120410000Y-72309669D03*
X117640000Y-72309669D03*
X114870000Y-72309669D03*
X124565000Y-75149669D03*
X121795000Y-75149669D03*
X119025000Y-75149669D03*
X116255000Y-75149669D03*
%TD*%
D11*
%TO.C,J3*%
X171050000Y-72309669D03*
D12*
X168280000Y-72309669D03*
X165510000Y-72309669D03*
X162740000Y-72309669D03*
X159970000Y-72309669D03*
X169665000Y-75149669D03*
X166895000Y-75149669D03*
X164125000Y-75149669D03*
X161355000Y-75149669D03*
%TD*%
M02*
