M48
; DRILL file {KiCad (6.0.1)} date Tue Jan 17 21:15:08 2023
; FORMAT={-:-/ absolute / metric / decimal}
; #@! TF.CreationDate,2023-01-17T21:15:08+08:00
; #@! TF.GenerationSoftware,Kicad,Pcbnew,(6.0.1)
; #@! TF.FileFunction,Plated,1,2,PTH
FMAT,2
METRIC
; #@! TA.AperFunction,Plated,PTH,ViaDrill
T1C0.400
; #@! TA.AperFunction,Plated,PTH,ComponentDrill
T2C1.000
%
G90
G05
T1
X130.8Y-66.0
X143.2Y-60.2
T2
X114.87Y-72.31
X116.255Y-75.15
X117.64Y-72.31
X119.025Y-75.15
X120.41Y-72.31
X121.795Y-75.15
X123.18Y-72.31
X124.565Y-75.15
X125.95Y-72.31
X137.4Y-75.19
X138.785Y-72.35
X140.17Y-75.19
X141.555Y-72.35
X142.94Y-75.19
X144.325Y-72.35
X145.71Y-75.19
X147.095Y-72.35
X148.48Y-75.19
X159.97Y-72.31
X161.355Y-75.15
X162.74Y-72.31
X164.125Y-75.15
X165.51Y-72.31
X166.895Y-75.15
X168.28Y-72.31
X169.665Y-75.15
X171.05Y-72.31
T0
M30
