%FSLAX45Y45*%
G04 Gerber Fmt 4.5, Leading zero omitted, Abs format (unit mm)*
G04 Created by KiCad (PCBNEW (6.0.1)) date 2023-01-17 21:15:09*
%MOMM*%
%LPD*%
G01*
G04 APERTURE LIST*
%TA.AperFunction,Profile*%
%ADD10C,0.100000*%
%TD*%
%ADD11C,0.200000*%
G04 APERTURE END LIST*
D10*
X11160000Y-5920000D02*
X17420000Y-5920000D01*
X17420000Y-5920000D02*
X17420000Y-8740000D01*
X17420000Y-8740000D02*
X11160000Y-8740000D01*
X11160000Y-8740000D02*
X11160000Y-5920000D01*
D11*
X11412619Y-9055476D02*
X11412619Y-8855476D01*
X11460238Y-8855476D01*
X11488809Y-8865000D01*
X11507857Y-8884048D01*
X11517381Y-8903095D01*
X11526905Y-8941190D01*
X11526905Y-8969762D01*
X11517381Y-9007857D01*
X11507857Y-9026905D01*
X11488809Y-9045952D01*
X11460238Y-9055476D01*
X11412619Y-9055476D01*
X11612619Y-9055476D02*
X11612619Y-8922143D01*
X11612619Y-8960238D02*
X11622143Y-8941190D01*
X11631667Y-8931667D01*
X11650714Y-8922143D01*
X11669762Y-8922143D01*
X11736428Y-9055476D02*
X11736428Y-8922143D01*
X11736428Y-8855476D02*
X11726905Y-8865000D01*
X11736428Y-8874524D01*
X11745952Y-8865000D01*
X11736428Y-8855476D01*
X11736428Y-8874524D01*
X11860238Y-9055476D02*
X11841190Y-9045952D01*
X11831667Y-9026905D01*
X11831667Y-8855476D01*
X11965000Y-9055476D02*
X11945952Y-9045952D01*
X11936428Y-9026905D01*
X11936428Y-8855476D01*
X12193571Y-9055476D02*
X12193571Y-8855476D01*
X12260238Y-8998333D01*
X12326905Y-8855476D01*
X12326905Y-9055476D01*
X12507857Y-9055476D02*
X12507857Y-8950714D01*
X12498333Y-8931667D01*
X12479286Y-8922143D01*
X12441190Y-8922143D01*
X12422143Y-8931667D01*
X12507857Y-9045952D02*
X12488809Y-9055476D01*
X12441190Y-9055476D01*
X12422143Y-9045952D01*
X12412619Y-9026905D01*
X12412619Y-9007857D01*
X12422143Y-8988810D01*
X12441190Y-8979286D01*
X12488809Y-8979286D01*
X12507857Y-8969762D01*
X12603095Y-8922143D02*
X12603095Y-9122143D01*
X12603095Y-8931667D02*
X12622143Y-8922143D01*
X12660238Y-8922143D01*
X12679286Y-8931667D01*
X12688809Y-8941190D01*
X12698333Y-8960238D01*
X12698333Y-9017381D01*
X12688809Y-9036429D01*
X12679286Y-9045952D01*
X12660238Y-9055476D01*
X12622143Y-9055476D01*
X12603095Y-9045952D01*
X12784048Y-9036429D02*
X12793571Y-9045952D01*
X12784048Y-9055476D01*
X12774524Y-9045952D01*
X12784048Y-9036429D01*
X12784048Y-9055476D01*
X12784048Y-8931667D02*
X12793571Y-8941190D01*
X12784048Y-8950714D01*
X12774524Y-8941190D01*
X12784048Y-8931667D01*
X12784048Y-8950714D01*
M02*
