%TF.GenerationSoftware,KiCad,Pcbnew,(6.0.1)*%
%TF.CreationDate,2023-01-17T21:15:05+08:00*%
%TF.ProjectId,TI99Joyadapter,54493939-4a6f-4796-9164-61707465722e,rev?*%
%TF.SameCoordinates,Original*%
%TF.FileFunction,Legend,Bot*%
%TF.FilePolarity,Positive*%
%FSLAX46Y46*%
G04 Gerber Fmt 4.6, Leading zero omitted, Abs format (unit mm)*
G04 Created by KiCad (PCBNEW (6.0.1)) date 2023-01-17 21:15:05*
%MOMM*%
%LPD*%
G01*
G04 APERTURE LIST*
%ADD10C,0.150000*%
%ADD11C,0.120000*%
G04 APERTURE END LIST*
D10*
%TO.C,J2*%
X120743333Y-65872049D02*
X120743333Y-66586335D01*
X120790952Y-66729192D01*
X120886190Y-66824430D01*
X121029047Y-66872049D01*
X121124285Y-66872049D01*
X120314761Y-65967288D02*
X120267142Y-65919669D01*
X120171904Y-65872049D01*
X119933809Y-65872049D01*
X119838571Y-65919669D01*
X119790952Y-65967288D01*
X119743333Y-66062526D01*
X119743333Y-66157764D01*
X119790952Y-66300621D01*
X120362380Y-66872049D01*
X119743333Y-66872049D01*
%TO.C,J3*%
X165843333Y-65872049D02*
X165843333Y-66586335D01*
X165890952Y-66729192D01*
X165986190Y-66824430D01*
X166129047Y-66872049D01*
X166224285Y-66872049D01*
X165462380Y-65872049D02*
X164843333Y-65872049D01*
X165176666Y-66253002D01*
X165033809Y-66253002D01*
X164938571Y-66300621D01*
X164890952Y-66348240D01*
X164843333Y-66443478D01*
X164843333Y-66681573D01*
X164890952Y-66776811D01*
X164938571Y-66824430D01*
X165033809Y-66872049D01*
X165319523Y-66872049D01*
X165414761Y-66824430D01*
X165462380Y-66776811D01*
D11*
%TO.C,J2*%
X126200000Y-66525331D02*
X125700000Y-66525331D01*
X125742421Y-77939669D02*
X115077579Y-77939669D01*
X128276470Y-71467925D02*
X127377202Y-76567925D01*
X125950000Y-66958344D02*
X126200000Y-66525331D01*
X126641689Y-69519669D02*
X114178311Y-69519669D01*
X105985000Y-80039669D02*
X134835000Y-80039669D01*
X135895000Y-78979669D02*
X135895000Y-68479669D01*
X134835000Y-67419669D02*
X105985000Y-67419669D01*
X104925000Y-68479669D02*
X104925000Y-78979669D01*
X125700000Y-66525331D02*
X125950000Y-66958344D01*
X112543530Y-71467925D02*
X113442798Y-76567925D01*
X113442798Y-76567925D02*
G75*
G03*
X115077579Y-77939669I1634780J288255D01*
G01*
X134835000Y-80039669D02*
G75*
G03*
X135895000Y-78979669I-1J1060001D01*
G01*
X125742421Y-77939669D02*
G75*
G03*
X127377202Y-76567925I-2J1660003D01*
G01*
X105985000Y-67419669D02*
G75*
G03*
X104925000Y-68479669I1J-1060001D01*
G01*
X114178311Y-69519669D02*
G75*
G03*
X112543530Y-71467925I-1J-1659999D01*
G01*
X135895000Y-68479669D02*
G75*
G03*
X134835000Y-67419669I-1060001J-1D01*
G01*
X128276470Y-71467925D02*
G75*
G03*
X126641689Y-69519669I-1634780J288257D01*
G01*
X104925000Y-78979669D02*
G75*
G03*
X105985000Y-80039669I1060001J1D01*
G01*
%TO.C,J3*%
X180995000Y-78979669D02*
X180995000Y-68479669D01*
X170842421Y-77939669D02*
X160177579Y-77939669D01*
X150025000Y-68479669D02*
X150025000Y-78979669D01*
X171300000Y-66525331D02*
X170800000Y-66525331D01*
X157643530Y-71467925D02*
X158542798Y-76567925D01*
X171050000Y-66958344D02*
X171300000Y-66525331D01*
X151085000Y-80039669D02*
X179935000Y-80039669D01*
X173376470Y-71467925D02*
X172477202Y-76567925D01*
X179935000Y-67419669D02*
X151085000Y-67419669D01*
X171741689Y-69519669D02*
X159278311Y-69519669D01*
X170800000Y-66525331D02*
X171050000Y-66958344D01*
X150025000Y-78979669D02*
G75*
G03*
X151085000Y-80039669I1060001J1D01*
G01*
X180995000Y-68479669D02*
G75*
G03*
X179935000Y-67419669I-1060001J-1D01*
G01*
X173376470Y-71467925D02*
G75*
G03*
X171741689Y-69519669I-1634780J288257D01*
G01*
X158542798Y-76567925D02*
G75*
G03*
X160177579Y-77939669I1634780J288255D01*
G01*
X170842421Y-77939669D02*
G75*
G03*
X172477202Y-76567925I-2J1660003D01*
G01*
X151085000Y-67419669D02*
G75*
G03*
X150025000Y-68479669I1J-1060001D01*
G01*
X159278311Y-69519669D02*
G75*
G03*
X157643530Y-71467925I-1J-1659999D01*
G01*
X179935000Y-80039669D02*
G75*
G03*
X180995000Y-78979669I-1J1060001D01*
G01*
%TD*%
M02*
